<svg xmlns="http://www.w3.org/2000/svg" viewBox="0 0 512 512"><path fill="currentColor" d="M272.5 29.8Q268.6 16.3 282.5 17.5A240 240 0 0 1 449.3 113.8Q457.3 125.3 448.4 136.1L350.8 254.2Q341.9 265.0 338.0 251.6L272.5 29.8ZM460.2 157.2Q469.8 147.0 475.8 159.7A240 240 0 0 1 475.8 352.3Q469.8 365.0 456.0 362.6L304.9 337.3Q291.1 334.9 300.8 324.8L460.2 157.2ZM443.7 383.4Q457.3 386.7 449.3 398.2A240 240 0 0 1 282.5 494.5Q268.6 495.7 263.7 482.6L210.1 339.0Q205.2 325.9 218.8 329.2L443.7 383.4ZM239.5 482.2Q243.4 495.7 229.5 494.5A240 240 0 0 1 62.7 398.2Q54.7 386.7 63.6 375.9L161.2 257.8Q170.1 247.0 174.0 260.4L239.5 482.2ZM51.8 354.8Q42.2 365.0 36.2 352.3A240 240 0 0 1 36.2 159.7Q42.2 147.0 56.0 149.4L207.1 174.7Q220.9 177.1 211.2 187.2L51.8 354.8ZM68.3 128.6Q54.7 125.3 62.7 113.8A240 240 0 0 1 229.5 17.5Q243.4 16.3 248.3 29.4L301.9 173.0Q306.8 186.1 293.2 182.8L68.3 128.6Z"></path></svg>