<svg xmlns="http://www.w3.org/2000/svg" viewBox="0 0 512 512"><path d="M68 56h160a12 12 0 0 1 12 12v176a12 12 0 0 1 -12 12h-160a12 12 0 0 1 -12 -12v-176a12 12 0 0 1 12 -12ZM78 264h140a6 6 0 0 1 6 6v6a6 6 0 0 1 -6 6h-140a6 6 0 0 1 -6 -6v-6a6 6 0 0 1 6 -6ZM68 314h160a12 12 0 0 1 12 12v92a12 12 0 0 1 -12 12h-160a12 12 0 0 1 -12 -12v-92a12 12 0 0 1 12 -12ZM78 438h140a6 6 0 0 1 6 6v6a6 6 0 0 1 -6 6h-140a6 6 0 0 1 -6 -6v-6a6 6 0 0 1 6 -6ZM284 56h160a12 12 0 0 1 12 12v84a12 12 0 0 1 -12 12h-160a12 12 0 0 1 -12 -12v-84a12 12 0 0 1 12 -12ZM294 172h140a6 6 0 0 1 6 6v6a6 6 0 0 1 -6 6h-140a6 6 0 0 1 -6 -6v-6a6 6 0 0 1 6 -6ZM284 222h160a12 12 0 0 1 12 12v184a12 12 0 0 1 -12 12h-160a12 12 0 0 1 -12 -12v-184a12 12 0 0 1 12 -12ZM294 438h140a6 6 0 0 1 6 6v6a6 6 0 0 1 -6 6h-140a6 6 0 0 1 -6 -6v-6a6 6 0 0 1 6 -6Z"/></svg>
