<svg xmlns="http://www.w3.org/2000/svg" viewBox="0 0 512 512"><path d="M68 56h240a12 12 0 0 1 12 12v88a12 12 0 0 1 -12 12h-240a12 12 0 0 1 -12 -12v-88a12 12 0 0 1 12 -12ZM364 56h80a12 12 0 0 1 12 12v88a12 12 0 0 1 -12 12h-80a12 12 0 0 1 -12 -12v-88a12 12 0 0 1 12 -12ZM68 200h104a12 12 0 0 1 12 12v88a12 12 0 0 1 -12 12h-104a12 12 0 0 1 -12 -12v-88a12 12 0 0 1 12 -12ZM228 200h216a12 12 0 0 1 12 12v88a12 12 0 0 1 -12 12h-216a12 12 0 0 1 -12 -12v-88a12 12 0 0 1 12 -12ZM68 344h168a12 12 0 0 1 12 12v88a12 12 0 0 1 -12 12h-168a12 12 0 0 1 -12 -12v-88a12 12 0 0 1 12 -12ZM292 344h152a12 12 0 0 1 12 12v88a12 12 0 0 1 -12 12h-152a12 12 0 0 1 -12 -12v-88a12 12 0 0 1 12 -12Z"/></svg>
