<svg xmlns="http://www.w3.org/2000/svg" viewBox="0 0 512 512"><path d="M68 56h88a12 12 0 0 1 12 12v240a12 12 0 0 1 -12 12h-88a12 12 0 0 1 -12 -12v-240a12 12 0 0 1 12 -12ZM68 352h88a12 12 0 0 1 12 12v80a12 12 0 0 1 -12 12h-88a12 12 0 0 1 -12 -12v-80a12 12 0 0 1 12 -12ZM212 56h88a12 12 0 0 1 12 12v104a12 12 0 0 1 -12 12h-88a12 12 0 0 1 -12 -12v-104a12 12 0 0 1 12 -12ZM212 216h88a12 12 0 0 1 12 12v216a12 12 0 0 1 -12 12h-88a12 12 0 0 1 -12 -12v-216a12 12 0 0 1 12 -12ZM356 56h88a12 12 0 0 1 12 12v168a12 12 0 0 1 -12 12h-88a12 12 0 0 1 -12 -12v-168a12 12 0 0 1 12 -12ZM356 280h88a12 12 0 0 1 12 12v152a12 12 0 0 1 -12 12h-88a12 12 0 0 1 -12 -12v-152a12 12 0 0 1 12 -12Z"/></svg>
