<svg xmlns="http://www.w3.org/2000/svg" viewBox="0 0 512 512"><path d="M98 62h100a12 12 0 0 1 12 12v100a12 12 0 0 1 -12 12h-100a12 12 0 0 1 -12 -12v-100a12 12 0 0 1 12 -12ZM91 196h114a5 5 0 0 1 5 5v0a5 5 0 0 1 -5 5h-114a5 5 0 0 1 -5 -5v0a5 5 0 0 1 5 -5ZM91 211h114a5 5 0 0 1 5 5v0a5 5 0 0 1 -5 5h-114a5 5 0 0 1 -5 -5v0a5 5 0 0 1 5 -5ZM91 226h64a5 5 0 0 1 5 5v0a5 5 0 0 1 -5 5h-64a5 5 0 0 1 -5 -5v0a5 5 0 0 1 5 -5ZM314 62h100a12 12 0 0 1 12 12v100a12 12 0 0 1 -12 12h-100a12 12 0 0 1 -12 -12v-100a12 12 0 0 1 12 -12ZM307 196h114a5 5 0 0 1 5 5v0a5 5 0 0 1 -5 5h-114a5 5 0 0 1 -5 -5v0a5 5 0 0 1 5 -5ZM307 211h114a5 5 0 0 1 5 5v0a5 5 0 0 1 -5 5h-114a5 5 0 0 1 -5 -5v0a5 5 0 0 1 5 -5ZM307 226h64a5 5 0 0 1 5 5v0a5 5 0 0 1 -5 5h-64a5 5 0 0 1 -5 -5v0a5 5 0 0 1 5 -5ZM98 278h100a12 12 0 0 1 12 12v100a12 12 0 0 1 -12 12h-100a12 12 0 0 1 -12 -12v-100a12 12 0 0 1 12 -12ZM91 412h114a5 5 0 0 1 5 5v0a5 5 0 0 1 -5 5h-114a5 5 0 0 1 -5 -5v0a5 5 0 0 1 5 -5ZM91 427h114a5 5 0 0 1 5 5v0a5 5 0 0 1 -5 5h-114a5 5 0 0 1 -5 -5v0a5 5 0 0 1 5 -5ZM91 442h64a5 5 0 0 1 5 5v0a5 5 0 0 1 -5 5h-64a5 5 0 0 1 -5 -5v0a5 5 0 0 1 5 -5ZM314 278h100a12 12 0 0 1 12 12v100a12 12 0 0 1 -12 12h-100a12 12 0 0 1 -12 -12v-100a12 12 0 0 1 12 -12ZM307 412h114a5 5 0 0 1 5 5v0a5 5 0 0 1 -5 5h-114a5 5 0 0 1 -5 -5v0a5 5 0 0 1 5 -5ZM307 427h114a5 5 0 0 1 5 5v0a5 5 0 0 1 -5 5h-114a5 5 0 0 1 -5 -5v0a5 5 0 0 1 5 -5ZM307 442h64a5 5 0 0 1 5 5v0a5 5 0 0 1 -5 5h-64a5 5 0 0 1 -5 -5v0a5 5 0 0 1 5 -5Z"/></svg>
